G04 #@! TF.GenerationSoftware,KiCad,Pcbnew,(2017-05-02 revision e4d2924ee)-makepkg*
G04 #@! TF.CreationDate,2017-08-14T20:40:29-05:00*
G04 #@! TF.ProjectId,MiscRf,4D69736352662E6B696361645F706362,rev?*
G04 #@! TF.FileFunction,Legend,Top*
G04 #@! TF.FilePolarity,Positive*
%FSLAX46Y46*%
G04 Gerber Fmt 4.6, Leading zero omitted, Abs format (unit mm)*
G04 Created by KiCad (PCBNEW (2017-05-02 revision e4d2924ee)-makepkg) date 08/14/17 20:40:29*
%MOMM*%
%LPD*%
G01*
G04 APERTURE LIST*
%ADD10C,0.100000*%
%ADD11C,0.150000*%
%ADD12C,0.120000*%
%ADD13C,0.381000*%
G04 APERTURE END LIST*
D10*
D11*
X179165000Y-56650000D02*
X179165000Y-57650000D01*
X179165000Y-57650000D02*
X180165000Y-57650000D01*
X180165000Y-57650000D02*
X180165000Y-56650000D01*
X180165000Y-56650000D02*
X179165000Y-56650000D01*
X179165000Y-56650000D02*
X179165000Y-56650000D01*
X174165000Y-55150000D02*
X174165000Y-54150000D01*
X174165000Y-54150000D02*
X174165000Y-54150000D01*
X174165000Y-59150000D02*
X174165000Y-60150000D01*
X174165000Y-60150000D02*
X174165000Y-60150000D01*
X174165000Y-60150000D02*
X190665000Y-60150000D01*
X190665000Y-60150000D02*
X190665000Y-60150000D01*
X174165000Y-54150000D02*
X190665000Y-54150000D01*
X190665000Y-54150000D02*
X190665000Y-54150000D01*
D12*
X168670000Y-60635000D02*
X167210000Y-60635000D01*
X168670000Y-57475000D02*
X166510000Y-57475000D01*
X168670000Y-57475000D02*
X168670000Y-58405000D01*
X168670000Y-60635000D02*
X168670000Y-59705000D01*
X168765000Y-77018000D02*
X168765000Y-76088000D01*
X168765000Y-73858000D02*
X168765000Y-74788000D01*
X168765000Y-73858000D02*
X166605000Y-73858000D01*
X168765000Y-77018000D02*
X167305000Y-77018000D01*
X168765000Y-93528000D02*
X167305000Y-93528000D01*
X168765000Y-90368000D02*
X166605000Y-90368000D01*
X168765000Y-90368000D02*
X168765000Y-91298000D01*
X168765000Y-93528000D02*
X168765000Y-92598000D01*
X185295000Y-70236000D02*
X186755000Y-70236000D01*
X185295000Y-73396000D02*
X187455000Y-73396000D01*
X185295000Y-73396000D02*
X185295000Y-72466000D01*
X185295000Y-70236000D02*
X185295000Y-71166000D01*
X185295000Y-86685000D02*
X185295000Y-87615000D01*
X185295000Y-89845000D02*
X185295000Y-88915000D01*
X185295000Y-89845000D02*
X187455000Y-89845000D01*
X185295000Y-86685000D02*
X186755000Y-86685000D01*
X174835000Y-90821000D02*
X174835000Y-92821000D01*
X171875000Y-92821000D02*
X171875000Y-90821000D01*
X178165000Y-91015000D02*
X176165000Y-91015000D01*
X176165000Y-88055000D02*
X178165000Y-88055000D01*
X179495000Y-92821000D02*
X179495000Y-90821000D01*
X182455000Y-90821000D02*
X182455000Y-92821000D01*
D13*
X177765000Y-73560000D02*
X177665000Y-73560000D01*
X177665000Y-73560000D02*
X177665000Y-73760000D01*
X177665000Y-73760000D02*
X177765000Y-73760000D01*
X177765000Y-73760000D02*
X177765000Y-73560000D01*
D10*
X178165000Y-73035000D02*
X176165000Y-73035000D01*
X176165000Y-73035000D02*
X176165000Y-74285000D01*
X176165000Y-74285000D02*
X178165000Y-74285000D01*
X178165000Y-74285000D02*
X178165000Y-73035000D01*
D11*
X175998333Y-53006666D02*
X176474523Y-53006666D01*
X175903095Y-53292380D02*
X176236428Y-52292380D01*
X176569761Y-53292380D01*
X176903095Y-52768571D02*
X177236428Y-52768571D01*
X177379285Y-53292380D02*
X176903095Y-53292380D01*
X176903095Y-52292380D01*
X177379285Y-52292380D01*
X178331666Y-53292380D02*
X177760238Y-53292380D01*
X178045952Y-53292380D02*
X178045952Y-52292380D01*
X177950714Y-52435238D01*
X177855476Y-52530476D01*
X177760238Y-52578095D01*
X167171904Y-57007380D02*
X167171904Y-56007380D01*
X167410000Y-56007380D01*
X167552857Y-56055000D01*
X167648095Y-56150238D01*
X167695714Y-56245476D01*
X167743333Y-56435952D01*
X167743333Y-56578809D01*
X167695714Y-56769285D01*
X167648095Y-56864523D01*
X167552857Y-56959761D01*
X167410000Y-57007380D01*
X167171904Y-57007380D01*
X168695714Y-57007380D02*
X168124285Y-57007380D01*
X168410000Y-57007380D02*
X168410000Y-56007380D01*
X168314761Y-56150238D01*
X168219523Y-56245476D01*
X168124285Y-56293095D01*
X167266904Y-73390380D02*
X167266904Y-72390380D01*
X167505000Y-72390380D01*
X167647857Y-72438000D01*
X167743095Y-72533238D01*
X167790714Y-72628476D01*
X167838333Y-72818952D01*
X167838333Y-72961809D01*
X167790714Y-73152285D01*
X167743095Y-73247523D01*
X167647857Y-73342761D01*
X167505000Y-73390380D01*
X167266904Y-73390380D01*
X168219285Y-72485619D02*
X168266904Y-72438000D01*
X168362142Y-72390380D01*
X168600238Y-72390380D01*
X168695476Y-72438000D01*
X168743095Y-72485619D01*
X168790714Y-72580857D01*
X168790714Y-72676095D01*
X168743095Y-72818952D01*
X168171666Y-73390380D01*
X168790714Y-73390380D01*
X167266904Y-89900380D02*
X167266904Y-88900380D01*
X167505000Y-88900380D01*
X167647857Y-88948000D01*
X167743095Y-89043238D01*
X167790714Y-89138476D01*
X167838333Y-89328952D01*
X167838333Y-89471809D01*
X167790714Y-89662285D01*
X167743095Y-89757523D01*
X167647857Y-89852761D01*
X167505000Y-89900380D01*
X167266904Y-89900380D01*
X168171666Y-88900380D02*
X168790714Y-88900380D01*
X168457380Y-89281333D01*
X168600238Y-89281333D01*
X168695476Y-89328952D01*
X168743095Y-89376571D01*
X168790714Y-89471809D01*
X168790714Y-89709904D01*
X168743095Y-89805142D01*
X168695476Y-89852761D01*
X168600238Y-89900380D01*
X168314523Y-89900380D01*
X168219285Y-89852761D01*
X168171666Y-89805142D01*
X185316904Y-74768380D02*
X185316904Y-73768380D01*
X185555000Y-73768380D01*
X185697857Y-73816000D01*
X185793095Y-73911238D01*
X185840714Y-74006476D01*
X185888333Y-74196952D01*
X185888333Y-74339809D01*
X185840714Y-74530285D01*
X185793095Y-74625523D01*
X185697857Y-74720761D01*
X185555000Y-74768380D01*
X185316904Y-74768380D01*
X186745476Y-74101714D02*
X186745476Y-74768380D01*
X186507380Y-73720761D02*
X186269285Y-74435047D01*
X186888333Y-74435047D01*
X185316904Y-91217380D02*
X185316904Y-90217380D01*
X185555000Y-90217380D01*
X185697857Y-90265000D01*
X185793095Y-90360238D01*
X185840714Y-90455476D01*
X185888333Y-90645952D01*
X185888333Y-90788809D01*
X185840714Y-90979285D01*
X185793095Y-91074523D01*
X185697857Y-91169761D01*
X185555000Y-91217380D01*
X185316904Y-91217380D01*
X186793095Y-90217380D02*
X186316904Y-90217380D01*
X186269285Y-90693571D01*
X186316904Y-90645952D01*
X186412142Y-90598333D01*
X186650238Y-90598333D01*
X186745476Y-90645952D01*
X186793095Y-90693571D01*
X186840714Y-90788809D01*
X186840714Y-91026904D01*
X186793095Y-91122142D01*
X186745476Y-91169761D01*
X186650238Y-91217380D01*
X186412142Y-91217380D01*
X186316904Y-91169761D01*
X186269285Y-91122142D01*
X165187380Y-63198333D02*
X165901666Y-63198333D01*
X166044523Y-63245952D01*
X166139761Y-63341190D01*
X166187380Y-63484047D01*
X166187380Y-63579285D01*
X166187380Y-62198333D02*
X166187380Y-62769761D01*
X166187380Y-62484047D02*
X165187380Y-62484047D01*
X165330238Y-62579285D01*
X165425476Y-62674523D01*
X165473095Y-62769761D01*
X165187380Y-80343333D02*
X165901666Y-80343333D01*
X166044523Y-80390952D01*
X166139761Y-80486190D01*
X166187380Y-80629047D01*
X166187380Y-80724285D01*
X165282619Y-79914761D02*
X165235000Y-79867142D01*
X165187380Y-79771904D01*
X165187380Y-79533809D01*
X165235000Y-79438571D01*
X165282619Y-79390952D01*
X165377857Y-79343333D01*
X165473095Y-79343333D01*
X165615952Y-79390952D01*
X166187380Y-79962380D01*
X166187380Y-79343333D01*
X187912380Y-78311333D02*
X188626666Y-78311333D01*
X188769523Y-78358952D01*
X188864761Y-78454190D01*
X188912380Y-78597047D01*
X188912380Y-78692285D01*
X187912380Y-77930380D02*
X187912380Y-77311333D01*
X188293333Y-77644666D01*
X188293333Y-77501809D01*
X188340952Y-77406571D01*
X188388571Y-77358952D01*
X188483809Y-77311333D01*
X188721904Y-77311333D01*
X188817142Y-77358952D01*
X188864761Y-77406571D01*
X188912380Y-77501809D01*
X188912380Y-77787523D01*
X188864761Y-77882761D01*
X188817142Y-77930380D01*
X165187380Y-95583333D02*
X165901666Y-95583333D01*
X166044523Y-95630952D01*
X166139761Y-95726190D01*
X166187380Y-95869047D01*
X166187380Y-95964285D01*
X165520714Y-94678571D02*
X166187380Y-94678571D01*
X165139761Y-94916666D02*
X165854047Y-95154761D01*
X165854047Y-94535714D01*
X187912380Y-94821333D02*
X188626666Y-94821333D01*
X188769523Y-94868952D01*
X188864761Y-94964190D01*
X188912380Y-95107047D01*
X188912380Y-95202285D01*
X187912380Y-93868952D02*
X187912380Y-94345142D01*
X188388571Y-94392761D01*
X188340952Y-94345142D01*
X188293333Y-94249904D01*
X188293333Y-94011809D01*
X188340952Y-93916571D01*
X188388571Y-93868952D01*
X188483809Y-93821333D01*
X188721904Y-93821333D01*
X188817142Y-93868952D01*
X188864761Y-93916571D01*
X188912380Y-94011809D01*
X188912380Y-94249904D01*
X188864761Y-94345142D01*
X188817142Y-94392761D01*
X176057380Y-91987666D02*
X175581190Y-92321000D01*
X176057380Y-92559095D02*
X175057380Y-92559095D01*
X175057380Y-92178142D01*
X175105000Y-92082904D01*
X175152619Y-92035285D01*
X175247857Y-91987666D01*
X175390714Y-91987666D01*
X175485952Y-92035285D01*
X175533571Y-92082904D01*
X175581190Y-92178142D01*
X175581190Y-92559095D01*
X176057380Y-91035285D02*
X176057380Y-91606714D01*
X176057380Y-91321000D02*
X175057380Y-91321000D01*
X175200238Y-91416238D01*
X175295476Y-91511476D01*
X175343095Y-91606714D01*
X176998333Y-92237380D02*
X176665000Y-91761190D01*
X176426904Y-92237380D02*
X176426904Y-91237380D01*
X176807857Y-91237380D01*
X176903095Y-91285000D01*
X176950714Y-91332619D01*
X176998333Y-91427857D01*
X176998333Y-91570714D01*
X176950714Y-91665952D01*
X176903095Y-91713571D01*
X176807857Y-91761190D01*
X176426904Y-91761190D01*
X177379285Y-91332619D02*
X177426904Y-91285000D01*
X177522142Y-91237380D01*
X177760238Y-91237380D01*
X177855476Y-91285000D01*
X177903095Y-91332619D01*
X177950714Y-91427857D01*
X177950714Y-91523095D01*
X177903095Y-91665952D01*
X177331666Y-92237380D01*
X177950714Y-92237380D01*
X183677380Y-91987666D02*
X183201190Y-92321000D01*
X183677380Y-92559095D02*
X182677380Y-92559095D01*
X182677380Y-92178142D01*
X182725000Y-92082904D01*
X182772619Y-92035285D01*
X182867857Y-91987666D01*
X183010714Y-91987666D01*
X183105952Y-92035285D01*
X183153571Y-92082904D01*
X183201190Y-92178142D01*
X183201190Y-92559095D01*
X182677380Y-91654333D02*
X182677380Y-91035285D01*
X183058333Y-91368619D01*
X183058333Y-91225761D01*
X183105952Y-91130523D01*
X183153571Y-91082904D01*
X183248809Y-91035285D01*
X183486904Y-91035285D01*
X183582142Y-91082904D01*
X183629761Y-91130523D01*
X183677380Y-91225761D01*
X183677380Y-91511476D01*
X183629761Y-91606714D01*
X183582142Y-91654333D01*
M02*
