M48
;DRILL file {KiCad (2017-05-02 revision e4d2924ee)-makepkg} date 08/14/17 20:31:07
;FORMAT={-:-/ absolute / inch / decimal}
FMAT,2
INCH,TZ
T1C0.016
%
G90
G05
M72
T1
X6.275Y-3.475
X6.3Y-3.625
X6.35Y-2.175
X6.35Y-2.34
X6.35Y-2.825
X6.35Y-2.975
X6.375Y-3.475
X6.4Y-3.625
X6.42Y-2.34
X6.425Y-2.175
X6.425Y-2.825
X6.425Y-2.975
X6.475Y-3.475
X6.5Y-3.625
X6.52Y-2.34
X6.525Y-2.175
X6.525Y-2.825
X6.525Y-2.975
X6.575Y-3.475
X6.575Y-3.725
X6.6Y-2.825
X6.62Y-2.39
X6.625Y-2.175
X6.675Y-2.825
X6.675Y-3.025
X6.675Y-3.475
X6.675Y-3.675
X6.725Y-2.175
X6.73Y-2.32
X6.75Y-2.825
X6.75Y-2.975
X6.775Y-3.475
X6.775Y-3.625
X6.825Y-2.175
X6.825Y-2.825
X6.825Y-2.975
X6.83Y-2.32
X6.875Y-3.45
X6.875Y-3.625
X6.9Y-2.835
X6.9Y-2.97
X6.95Y-2.805
X6.95Y-2.995
X6.975Y-3.45
X6.975Y-3.625
X7.Y-2.805
X7.Y-2.995
X7.045Y-2.84
X7.05Y-2.965
X7.075Y-3.625
X7.1Y-3.475
X7.125Y-2.825
X7.125Y-2.975
X7.175Y-3.625
X7.2Y-3.475
X7.225Y-2.825
X7.225Y-2.975
X7.275Y-3.425
X7.275Y-3.625
X7.325Y-2.975
X7.4Y-3.375
X7.425Y-2.825
X7.425Y-2.975
X7.425Y-3.475
X7.425Y-3.625
X7.525Y-3.475
X7.525Y-3.625
X7.55Y-2.825
X7.55Y-2.975
X7.625Y-3.475
X7.625Y-3.625
X7.65Y-2.825
X7.65Y-2.975
T0
M30
