G04 #@! TF.GenerationSoftware,KiCad,Pcbnew,(2017-05-02 revision e4d2924ee)-makepkg*
G04 #@! TF.CreationDate,2017-08-14T20:40:29-05:00*
G04 #@! TF.ProjectId,MiscRf,4D69736352662E6B696361645F706362,rev?*
G04 #@! TF.FileFunction,Soldermask,Top*
G04 #@! TF.FilePolarity,Negative*
%FSLAX46Y46*%
G04 Gerber Fmt 4.6, Leading zero omitted, Abs format (unit mm)*
G04 Created by KiCad (PCBNEW (2017-05-02 revision e4d2924ee)-makepkg) date 08/14/17 20:40:29*
%MOMM*%
%LPD*%
G01*
G04 APERTURE LIST*
%ADD10C,0.100000*%
%ADD11R,2.203200X4.703200*%
%ADD12R,1.103200X1.003200*%
%ADD13R,5.283200X2.819400*%
%ADD14R,5.283200X2.489200*%
%ADD15R,2.703200X1.103200*%
%ADD16R,1.103200X2.703200*%
%ADD17R,0.553200X1.203200*%
%ADD18R,1.203200X0.553200*%
G04 APERTURE END LIST*
D10*
D11*
X177165000Y-57150000D03*
X189365000Y-57150000D03*
D12*
X168910000Y-59055000D03*
X166910000Y-60005000D03*
X166910000Y-58105000D03*
X167005000Y-74488000D03*
X167005000Y-76388000D03*
X169005000Y-75438000D03*
X169005000Y-91948000D03*
X167005000Y-92898000D03*
X167005000Y-90998000D03*
X185055000Y-71816000D03*
X187055000Y-70866000D03*
X187055000Y-72766000D03*
X187055000Y-89215000D03*
X187055000Y-87315000D03*
X185055000Y-88265000D03*
D13*
X161290000Y-61595000D03*
X161290000Y-52832000D03*
D14*
X161290000Y-57277000D03*
X161290000Y-73660000D03*
D13*
X161290000Y-69215000D03*
X161290000Y-77978000D03*
X193040000Y-77978000D03*
X193040000Y-69215000D03*
D14*
X193040000Y-73660000D03*
X161290000Y-90170000D03*
D13*
X161290000Y-85725000D03*
X161290000Y-94488000D03*
X193040000Y-94488000D03*
X193040000Y-85725000D03*
D14*
X193040000Y-90170000D03*
D15*
X173355000Y-93271000D03*
X173355000Y-90371000D03*
D16*
X175715000Y-89535000D03*
X178615000Y-89535000D03*
D15*
X180975000Y-90371000D03*
X180975000Y-93271000D03*
D17*
X177815000Y-72760000D03*
X177165000Y-72760000D03*
X176515000Y-72760000D03*
D18*
X175890000Y-73660000D03*
D17*
X176515000Y-74560000D03*
X177165000Y-74560000D03*
X177815000Y-74560000D03*
D18*
X178440000Y-73660000D03*
M02*
